<svg xmlns="http://www.w3.org/2000/svg" width="324.245" height="37.31" viewBox="0 0 324.245 37.31">
  <g id="Group_79" data-name="Group 79" transform="translate(-62.059 -40.196)">
    <path id="Path_47" data-name="Path 47" d="M19.231,22.478,31.509,15.39A6.041,6.041,0,1,0,25.467,4.927L4.253,17.175Z" transform="translate(60.828 36.809)" fill="#e94435"/>
    <path id="Path_48" data-name="Path 48" d="M27.251,45.688a6.042,6.042,0,0,0,3.026-11.274L9.062,22.166A6.041,6.041,0,0,0,3.021,32.629L24.236,44.877a6.007,6.007,0,0,0,3.015.811" transform="translate(62.059 31.818)" fill="#547dbe"/>
    <path id="Path_49" data-name="Path 49" d="M65.592,48.076a6.007,6.007,0,0,0,3.015-.811L89.821,35.017,75.033,29.6,62.566,36.8a6.042,6.042,0,0,0,3.026,11.274" transform="translate(44.821 29.43)" fill="#f8bb15"/>
    <path id="Path_50" data-name="Path 50" d="M86.795,28.449a6.042,6.042,0,0,0,3.026-11.274L68.607,4.927A6.041,6.041,0,0,0,62.566,15.39L83.78,27.638a6.014,6.014,0,0,0,3.015.811" transform="translate(44.821 36.809)" fill="#0b9d58"/>
    <path id="Path_57" data-name="Path 57" d="M15.981-6.909A6.782,6.782,0,0,1,14.112-1.89,7.241,7.241,0,0,1,8.589.336,7.541,7.541,0,0,1,3.045-1.932,7.591,7.591,0,0,1,.777-7.518,7.591,7.591,0,0,1,3.045-13.1a7.541,7.541,0,0,1,5.544-2.268,8.346,8.346,0,0,1,3.129.588,6.255,6.255,0,0,1,2.415,1.659l-1.386,1.386a4.659,4.659,0,0,0-1.8-1.312,5.933,5.933,0,0,0-2.363-.472,5.656,5.656,0,0,0-4.158,1.7,5.918,5.918,0,0,0-1.68,4.305,5.918,5.918,0,0,0,1.68,4.305,5.656,5.656,0,0,0,4.158,1.7,5.591,5.591,0,0,0,3.738-1.26,5.02,5.02,0,0,0,1.722-3.465H8.589V-8.043h7.287A6.45,6.45,0,0,1,15.981-6.909ZM17.22-5.145a5.444,5.444,0,0,1,1.491-3.927,5.082,5.082,0,0,1,3.8-1.554,5.014,5.014,0,0,1,3.78,1.554A5.4,5.4,0,0,1,27.8-5.145a5.357,5.357,0,0,1-1.512,3.927A5.014,5.014,0,0,1,22.512.336a5.082,5.082,0,0,1-3.8-1.554A5.444,5.444,0,0,1,17.22-5.145Zm1.932,0a3.768,3.768,0,0,0,.966,2.688,3.151,3.151,0,0,0,2.394,1.029,3.151,3.151,0,0,0,2.394-1.029,3.768,3.768,0,0,0,.966-2.688,3.739,3.739,0,0,0-.966-2.667,3.164,3.164,0,0,0-2.394-1.05,3.164,3.164,0,0,0-2.394,1.05A3.739,3.739,0,0,0,19.152-5.145Zm9.828,0a5.444,5.444,0,0,1,1.491-3.927,5.082,5.082,0,0,1,3.8-1.554,5.014,5.014,0,0,1,3.78,1.554,5.4,5.4,0,0,1,1.512,3.927,5.357,5.357,0,0,1-1.512,3.927A5.014,5.014,0,0,1,34.272.336a5.082,5.082,0,0,1-3.8-1.554A5.444,5.444,0,0,1,28.98-5.145Zm1.932,0a3.768,3.768,0,0,0,.966,2.688,3.151,3.151,0,0,0,2.394,1.029,3.151,3.151,0,0,0,2.394-1.029,3.768,3.768,0,0,0,.966-2.688,3.739,3.739,0,0,0-.966-2.667,3.164,3.164,0,0,0-2.394-1.05,3.164,3.164,0,0,0-2.394,1.05A3.739,3.739,0,0,0,30.912-5.145ZM45.948-1.428a2.958,2.958,0,0,0,2.331-1.029,3.818,3.818,0,0,0,.945-2.688,3.836,3.836,0,0,0-.945-2.667,2.972,2.972,0,0,0-2.331-1.05,3.013,3.013,0,0,0-2.331,1.05,3.836,3.836,0,0,0-.945,2.667,3.788,3.788,0,0,0,.945,2.667A3.013,3.013,0,0,0,45.948-1.428Zm-.063,6.3a5.75,5.75,0,0,1-1.617-.22,5.226,5.226,0,0,1-1.375-.619,4.443,4.443,0,0,1-1.061-.945,3.984,3.984,0,0,1-.672-1.218l1.827-.756a2.892,2.892,0,0,0,1.092,1.449,3.062,3.062,0,0,0,1.806.546,3.2,3.2,0,0,0,2.457-.945,3.667,3.667,0,0,0,.882-2.6v-.987H49.14A3.8,3.8,0,0,1,47.66-.137a4.427,4.427,0,0,1-2.027.473,4.549,4.549,0,0,1-3.465-1.575A5.7,5.7,0,0,1,40.74-5.145,5.619,5.619,0,0,1,42.168-9.03a4.523,4.523,0,0,1,3.465-1.6,4.427,4.427,0,0,1,2.027.472,3.8,3.8,0,0,1,1.48,1.292h.084V-10.29h1.848V-.441a5.25,5.25,0,0,1-1.407,3.885A5.11,5.11,0,0,1,45.885,4.872Zm9.471-19.908V0H53.424V-15.036ZM62.139.336A4.922,4.922,0,0,1,58.4-1.218a5.487,5.487,0,0,1-1.47-3.927,5.589,5.589,0,0,1,1.428-3.916,4.726,4.726,0,0,1,3.654-1.564,4.7,4.7,0,0,1,3.644,1.48A5.92,5.92,0,0,1,67.011-5l-.021.21H58.9a3.353,3.353,0,0,0,1.008,2.436,3.225,3.225,0,0,0,2.31.924,3.215,3.215,0,0,0,2.9-1.848l1.722.84A5.133,5.133,0,0,1,64.922-.4,5.314,5.314,0,0,1,62.139.336Zm-3.087-6.72h5.9a2.562,2.562,0,0,0-.871-1.774,3.051,3.051,0,0,0-2.11-.7,2.8,2.8,0,0,0-1.88.672A3.21,3.21,0,0,0,59.052-6.384ZM73.731,0V-15.036h4.6a7.5,7.5,0,0,1,5.534,2.079,7.335,7.335,0,0,1,2.09,5.439,7.327,7.327,0,0,1-2.09,5.45A7.522,7.522,0,0,1,78.33,0Zm1.932-13.188v11.34H78.33a5.613,5.613,0,0,0,4.137-1.5,5.611,5.611,0,0,0,1.512-4.168,5.619,5.619,0,0,0-1.512-4.158,5.59,5.59,0,0,0-4.137-1.512ZM91.9.336a4.922,4.922,0,0,1-3.738-1.554,5.487,5.487,0,0,1-1.47-3.927,5.589,5.589,0,0,1,1.428-3.916,4.726,4.726,0,0,1,3.654-1.564,4.7,4.7,0,0,1,3.644,1.48A5.92,5.92,0,0,1,96.768-5l-.021.21H88.662A3.353,3.353,0,0,0,89.67-2.352a3.225,3.225,0,0,0,2.31.924,3.215,3.215,0,0,0,2.9-1.848l1.722.84A5.133,5.133,0,0,1,94.678-.4,5.314,5.314,0,0,1,91.9.336Zm-3.087-6.72h5.9a2.562,2.562,0,0,0-.871-1.774,3.051,3.051,0,0,0-2.111-.7,2.8,2.8,0,0,0-1.88.672A3.21,3.21,0,0,0,88.809-6.384ZM103.131,0H101.2L97.041-10.29h2.1l3.024,7.98h.042l3.066-7.98h2.058ZM112.6.336a4.922,4.922,0,0,1-3.738-1.554,5.487,5.487,0,0,1-1.47-3.927,5.589,5.589,0,0,1,1.428-3.916,4.726,4.726,0,0,1,3.654-1.564,4.7,4.7,0,0,1,3.644,1.48A5.92,5.92,0,0,1,117.474-5l-.021.21h-8.085a3.353,3.353,0,0,0,1.008,2.436,3.225,3.225,0,0,0,2.31.924,3.215,3.215,0,0,0,2.9-1.848l1.722.84A5.133,5.133,0,0,1,115.384-.4,5.314,5.314,0,0,1,112.6.336Zm-3.087-6.72h5.9a2.562,2.562,0,0,0-.871-1.774,3.051,3.051,0,0,0-2.111-.7,2.8,2.8,0,0,0-1.88.672A3.21,3.21,0,0,0,109.515-6.384Zm11.655-8.652V0h-1.932V-15.036Zm1.575,9.891a5.444,5.444,0,0,1,1.491-3.927,5.082,5.082,0,0,1,3.8-1.554,5.014,5.014,0,0,1,3.78,1.554,5.4,5.4,0,0,1,1.512,3.927,5.357,5.357,0,0,1-1.512,3.927,5.014,5.014,0,0,1-3.78,1.554,5.082,5.082,0,0,1-3.8-1.554A5.444,5.444,0,0,1,122.745-5.145Zm1.932,0a3.768,3.768,0,0,0,.966,2.688,3.151,3.151,0,0,0,2.394,1.029,3.151,3.151,0,0,0,2.394-1.029,3.768,3.768,0,0,0,.966-2.688,3.739,3.739,0,0,0-.966-2.667,3.164,3.164,0,0,0-2.394-1.05,3.164,3.164,0,0,0-2.394,1.05A3.739,3.739,0,0,0,124.677-5.145Zm15.267,3.717a3.013,3.013,0,0,0,2.331-1.05,3.788,3.788,0,0,0,.945-2.667,3.836,3.836,0,0,0-.945-2.667,3.013,3.013,0,0,0-2.331-1.05,3.035,3.035,0,0,0-2.352,1.05,3.889,3.889,0,0,0-.924,2.667,3.919,3.919,0,0,0,.924,2.688A3.063,3.063,0,0,0,139.944-1.428Zm.315,1.764a4.437,4.437,0,0,1-2.069-.483,3.619,3.619,0,0,1-1.438-1.281h-.084L136.752,0V4.536H134.82V-10.29h1.848v1.428h.084a3.619,3.619,0,0,1,1.438-1.281,4.437,4.437,0,0,1,2.069-.483,4.419,4.419,0,0,1,3.444,1.6,5.621,5.621,0,0,1,1.449,3.885A5.572,5.572,0,0,1,143.7-1.26,4.419,4.419,0,0,1,140.259.336Zm11.277,0A4.922,4.922,0,0,1,147.8-1.218a5.487,5.487,0,0,1-1.47-3.927,5.589,5.589,0,0,1,1.428-3.916,4.726,4.726,0,0,1,3.654-1.564,4.7,4.7,0,0,1,3.644,1.48A5.92,5.92,0,0,1,156.408-5l-.021.21H148.3a3.353,3.353,0,0,0,1.008,2.436,3.225,3.225,0,0,0,2.31.924,3.215,3.215,0,0,0,2.9-1.848l1.722.84A5.133,5.133,0,0,1,154.319-.4,5.314,5.314,0,0,1,151.536.336Zm-3.087-6.72h5.9a2.562,2.562,0,0,0-.872-1.774,3.051,3.051,0,0,0-2.11-.7,2.8,2.8,0,0,0-1.88.672A3.21,3.21,0,0,0,148.449-6.384ZM160.1,0h-1.932V-10.29h1.848v1.68h.084a2.789,2.789,0,0,1,1.208-1.4,3.351,3.351,0,0,1,1.8-.578,3.62,3.62,0,0,1,1.428.252l-.588,1.869a3.2,3.2,0,0,0-1.134-.147,2.5,2.5,0,0,0-1.9.882A2.95,2.95,0,0,0,160.1-5.67Zm12.747-2.856a2.79,2.79,0,0,1-1.176,2.268,4.646,4.646,0,0,1-2.961.924,4.7,4.7,0,0,1-2.73-.809A4.458,4.458,0,0,1,164.3-2.6l1.722-.735a3.2,3.2,0,0,0,1.1,1.439,2.68,2.68,0,0,0,1.585.514,2.8,2.8,0,0,0,1.544-.4,1.133,1.133,0,0,0,.619-.945q0-.987-1.512-1.449L167.6-4.62q-3-.756-3-2.9a2.676,2.676,0,0,1,1.145-2.258,4.782,4.782,0,0,1,2.929-.85,4.761,4.761,0,0,1,2.467.651,3.538,3.538,0,0,1,1.544,1.743l-1.722.714a2.168,2.168,0,0,0-.955-1.018,3,3,0,0,0-1.48-.368,2.483,2.483,0,0,0-1.355.378,1.089,1.089,0,0,0-.6.924q0,.882,1.659,1.26l1.554.4Q172.851-5.187,172.851-2.856Zm20.286-4.053a6.782,6.782,0,0,1-1.869,5.019A7.241,7.241,0,0,1,185.745.336,7.541,7.541,0,0,1,180.2-1.932a7.591,7.591,0,0,1-2.268-5.586A7.591,7.591,0,0,1,180.2-13.1a7.541,7.541,0,0,1,5.544-2.268,8.346,8.346,0,0,1,3.129.588,6.255,6.255,0,0,1,2.415,1.659L189.9-11.739a4.658,4.658,0,0,0-1.8-1.312,5.934,5.934,0,0,0-2.363-.472,5.656,5.656,0,0,0-4.158,1.7,5.918,5.918,0,0,0-1.68,4.305,5.918,5.918,0,0,0,1.68,4.305,5.656,5.656,0,0,0,4.158,1.7,5.591,5.591,0,0,0,3.738-1.26,5.02,5.02,0,0,0,1.722-3.465h-5.46V-8.043h7.287A6.451,6.451,0,0,1,193.137-6.909ZM196.266,0h-1.932V-10.29h1.848v1.68h.084a2.789,2.789,0,0,1,1.208-1.4,3.351,3.351,0,0,1,1.8-.578,3.62,3.62,0,0,1,1.428.252l-.588,1.869a3.2,3.2,0,0,0-1.134-.147,2.5,2.5,0,0,0-1.9.882,2.95,2.95,0,0,0-.809,2.058Zm3.864-5.145a5.444,5.444,0,0,1,1.491-3.927,5.082,5.082,0,0,1,3.8-1.554,5.014,5.014,0,0,1,3.78,1.554,5.4,5.4,0,0,1,1.512,3.927A5.357,5.357,0,0,1,209.2-1.218a5.014,5.014,0,0,1-3.78,1.554,5.082,5.082,0,0,1-3.8-1.554A5.444,5.444,0,0,1,200.13-5.145Zm1.932,0a3.768,3.768,0,0,0,.966,2.688,3.151,3.151,0,0,0,2.394,1.029,3.151,3.151,0,0,0,2.394-1.029,3.768,3.768,0,0,0,.966-2.688,3.739,3.739,0,0,0-.966-2.667,3.164,3.164,0,0,0-2.394-1.05,3.164,3.164,0,0,0-2.394,1.05A3.739,3.739,0,0,0,202.062-5.145ZM221.319,0h-1.848V-1.428h-.084a3.436,3.436,0,0,1-1.355,1.26,3.882,3.882,0,0,1-1.9.5,3.8,3.8,0,0,1-2.908-1.082,4.317,4.317,0,0,1-1.019-3.076V-10.29h1.932v6.342a2.271,2.271,0,0,0,2.541,2.52,2.415,2.415,0,0,0,1.932-.934,3.385,3.385,0,0,0,.777-2.237V-10.29h1.932Zm7.392-1.428a3.013,3.013,0,0,0,2.331-1.05,3.788,3.788,0,0,0,.945-2.667,3.836,3.836,0,0,0-.945-2.667,3.013,3.013,0,0,0-2.331-1.05,3.035,3.035,0,0,0-2.352,1.05,3.889,3.889,0,0,0-.924,2.667,3.919,3.919,0,0,0,.924,2.688A3.063,3.063,0,0,0,228.711-1.428Zm.315,1.764a4.437,4.437,0,0,1-2.069-.483,3.619,3.619,0,0,1-1.438-1.281h-.084L225.519,0V4.536h-1.932V-10.29h1.848v1.428h.084a3.619,3.619,0,0,1,1.438-1.281,4.437,4.437,0,0,1,2.069-.483,4.419,4.419,0,0,1,3.444,1.6,5.621,5.621,0,0,1,1.449,3.885A5.572,5.572,0,0,1,232.47-1.26,4.419,4.419,0,0,1,229.026.336Z" transform="translate(152.384 55.568)" fill="#676c73"/>
    <path id="Path_56" data-name="Path 56" d="M6.812,0H.416V-1.248L5.369-8.164H.624V-9.308H6.76V-8.06L1.807-1.144h5ZM8.931-1.95a.955.955,0,0,0,.4.78,1.459,1.459,0,0,0,.93.312A1.906,1.906,0,0,0,11.6-1.417a1.751,1.751,0,0,0,.592-1.313,2.457,2.457,0,0,0-1.56-.442,2.027,2.027,0,0,0-1.215.351A1.042,1.042,0,0,0,8.931-1.95Zm1.547-4.628a2.965,2.965,0,0,1,2.093.708,2.515,2.515,0,0,1,.767,1.944V0H12.194V-.884h-.052A2.282,2.282,0,0,1,10.166.208,2.569,2.569,0,0,1,8.4-.416,1.993,1.993,0,0,1,7.7-1.976a1.894,1.894,0,0,1,.747-1.573,3.15,3.15,0,0,1,2-.585,3.531,3.531,0,0,1,1.755.39v-.273a1.361,1.361,0,0,0-.494-1.06,1.694,1.694,0,0,0-1.157-.436,1.833,1.833,0,0,0-1.586.845L7.9-5.33A2.936,2.936,0,0,1,10.478-6.578ZM15.886,0h-1.2V-6.37h1.144v.884h.052a2.127,2.127,0,0,1,.839-.78,2.312,2.312,0,0,1,1.124-.312,2.325,2.325,0,0,1,1.235.325,1.917,1.917,0,0,1,.78.9,2.486,2.486,0,0,1,2.2-1.222,2.154,2.154,0,0,1,1.7.676,2.811,2.811,0,0,1,.6,1.924V0h-1.2V-3.8a2.044,2.044,0,0,0-.325-1.293,1.338,1.338,0,0,0-1.092-.4,1.429,1.429,0,0,0-1.157.585,2.14,2.14,0,0,0-.468,1.378V0h-1.2V-3.8A2.044,2.044,0,0,0,18.6-5.089a1.338,1.338,0,0,0-1.092-.4,1.429,1.429,0,0,0-1.157.585,2.14,2.14,0,0,0-.468,1.378ZM29.133.208a2.747,2.747,0,0,1-1.28-.3,2.24,2.24,0,0,1-.891-.793H26.91V0H25.766V-9.308h1.2V-6.37l-.052.884h.052a2.241,2.241,0,0,1,.891-.793,2.747,2.747,0,0,1,1.28-.3,2.736,2.736,0,0,1,2.132.988,3.479,3.479,0,0,1,.9,2.405,3.449,3.449,0,0,1-.9,2.4A2.736,2.736,0,0,1,29.133.208ZM28.938-.884a1.865,1.865,0,0,0,1.443-.65,2.345,2.345,0,0,0,.585-1.651,2.375,2.375,0,0,0-.585-1.651,1.865,1.865,0,0,0-1.443-.65,1.879,1.879,0,0,0-1.456.65,2.407,2.407,0,0,0-.572,1.651,2.426,2.426,0,0,0,.572,1.664A1.9,1.9,0,0,0,28.938-.884Zm3.952-2.3a3.37,3.37,0,0,1,.923-2.431,3.146,3.146,0,0,1,2.353-.962,3.1,3.1,0,0,1,2.34.962,3.344,3.344,0,0,1,.936,2.431,3.316,3.316,0,0,1-.936,2.431,3.1,3.1,0,0,1-2.34.962,3.146,3.146,0,0,1-2.353-.962A3.37,3.37,0,0,1,32.89-3.185Zm1.2,0a2.333,2.333,0,0,0,.6,1.664,1.951,1.951,0,0,0,1.482.637,1.951,1.951,0,0,0,1.482-.637,2.333,2.333,0,0,0,.6-1.664,2.315,2.315,0,0,0-.6-1.651,1.959,1.959,0,0,0-1.482-.65,1.959,1.959,0,0,0-1.482.65A2.315,2.315,0,0,0,34.086-3.185ZM41.4-1.95a.955.955,0,0,0,.4.78,1.459,1.459,0,0,0,.93.312,1.906,1.906,0,0,0,1.346-.559,1.751,1.751,0,0,0,.591-1.313,2.457,2.457,0,0,0-1.56-.442,2.027,2.027,0,0,0-1.215.351A1.042,1.042,0,0,0,41.4-1.95Zm1.547-4.628a2.965,2.965,0,0,1,2.093.708,2.515,2.515,0,0,1,.767,1.944V0H44.668V-.884h-.052A2.282,2.282,0,0,1,42.64.208a2.569,2.569,0,0,1-1.762-.624,1.993,1.993,0,0,1-.708-1.56,1.894,1.894,0,0,1,.748-1.573,3.15,3.15,0,0,1,2-.585,3.531,3.531,0,0,1,1.755.39v-.273a1.361,1.361,0,0,0-.494-1.06,1.694,1.694,0,0,0-1.157-.436,1.833,1.833,0,0,0-1.586.845L40.378-5.33A2.936,2.936,0,0,1,42.952-6.578Zm4.212.208h1.144v.884h.052a2.127,2.127,0,0,1,.839-.78,2.4,2.4,0,0,1,1.176-.312,2.354,2.354,0,0,1,1.8.669A2.672,2.672,0,0,1,52.806-4V0h-1.2V-3.926a1.406,1.406,0,0,0-1.573-1.56,1.5,1.5,0,0,0-1.2.579,2.1,2.1,0,0,0-.481,1.384V0h-1.2ZM56.94-.884a1.831,1.831,0,0,0,1.443-.637,2.363,2.363,0,0,0,.585-1.664,2.375,2.375,0,0,0-.585-1.651,1.84,1.84,0,0,0-1.443-.65,1.865,1.865,0,0,0-1.443.65,2.375,2.375,0,0,0-.585,1.651A2.345,2.345,0,0,0,55.5-1.534,1.865,1.865,0,0,0,56.94-.884Zm-.039,3.9a3.559,3.559,0,0,1-1-.136,3.235,3.235,0,0,1-.852-.383,2.75,2.75,0,0,1-.656-.585,2.466,2.466,0,0,1-.416-.754L55.107.689a1.791,1.791,0,0,0,.676.9,1.9,1.9,0,0,0,1.118.338,1.978,1.978,0,0,0,1.521-.585,2.27,2.27,0,0,0,.546-1.612V-.884h-.052a2.352,2.352,0,0,1-.917.8,2.741,2.741,0,0,1-1.254.293A2.816,2.816,0,0,1,54.6-.767a3.526,3.526,0,0,1-.884-2.418A3.479,3.479,0,0,1,54.6-5.59a2.8,2.8,0,0,1,2.145-.988A2.741,2.741,0,0,1,58-6.286a2.352,2.352,0,0,1,.917.8h.052V-6.37h1.144v6.1a3.25,3.25,0,0,1-.871,2.4A3.163,3.163,0,0,1,56.9,3.016ZM62.322-1.95a.955.955,0,0,0,.4.78,1.459,1.459,0,0,0,.93.312,1.906,1.906,0,0,0,1.346-.559,1.751,1.751,0,0,0,.591-1.313,2.457,2.457,0,0,0-1.56-.442,2.027,2.027,0,0,0-1.215.351A1.042,1.042,0,0,0,62.322-1.95Zm1.547-4.628a2.965,2.965,0,0,1,2.093.708,2.515,2.515,0,0,1,.767,1.944V0H65.585V-.884h-.052A2.282,2.282,0,0,1,63.557.208,2.569,2.569,0,0,1,61.8-.416a1.993,1.993,0,0,1-.708-1.56,1.894,1.894,0,0,1,.748-1.573,3.15,3.15,0,0,1,2-.585,3.531,3.531,0,0,1,1.755.39v-.273a1.361,1.361,0,0,0-.494-1.06,1.694,1.694,0,0,0-1.157-.436,1.833,1.833,0,0,0-1.586.845L61.295-5.33A2.936,2.936,0,0,1,63.869-6.578Z" transform="translate(152.384 74.078)" fill="#676c73"/>
  </g>
</svg>
